HIERARCHY
ROOT hip
{
  OFFSET 0 0 0
  CHANNELS 6 Xposition Yposition Zposition Zrotation Yrotation Xrotation
  JOINT abdomen
  {
    OFFSET 0 20.6881 -0.73152
    CHANNELS 3 Zrotation Xrotation Yrotation
    JOINT chest
    {
      OFFSET 0 11.7043 -0.48768
      CHANNELS 3 Zrotation Xrotation Yrotation
      JOINT neck
      {
        OFFSET 0 22.1894 -2.19456
        CHANNELS 3 Zrotation Xrotation Yrotation
        JOINT head
        {
          OFFSET -0.24384 7.07133 1.2192
          CHANNELS 3 Zrotation Xrotation Yrotation
          JOINT leftEye
          {
            OFFSET 4.14528 8.04674 8.04672
            CHANNELS 3 Zrotation Xrotation Yrotation
            End Site
            {
              OFFSET 1 0 0
            }
          }
          JOINT rightEye
          {
            OFFSET -3.6576 8.04674 8.04672
            CHANNELS 3 Zrotation Xrotation Yrotation
            End Site
            {
              OFFSET 1 0 0
            }
          }
        }
      }
      JOINT rCollar
      {
        OFFSET -2.68224 19.2634 -4.8768
        CHANNELS 3 Zrotation Xrotation Yrotation
        JOINT rShldr
        {
          OFFSET -8.77824 -1.95073 1.46304
          CHANNELS 3 Zrotation Xrotation Yrotation
          JOINT rForeArm
          {
            OFFSET -28.1742 -1.7115 0.48768
            CHANNELS 3 Zrotation Xrotation Yrotation
            JOINT rHand
            {
              OFFSET -22.5879 0.773209 7.07136
              CHANNELS 3 Zrotation Xrotation Yrotation
              JOINT rThumb1
              {
                OFFSET -1.2192 -0.487915 3.41376
                CHANNELS 3 Zrotation Xrotation Yrotation
                JOINT rThumb2
                {
                  OFFSET -3.37035 -0.52449 3.41376
                  CHANNELS 3 Zrotation Xrotation Yrotation
                  End Site
                  {
                    OFFSET -1.78271 -1.18214 1.43049
                  }
                }
              }
              JOINT rIndex1
              {
                OFFSET -7.75947 0.938293 5.60832
                CHANNELS 3 Zrotation Xrotation Yrotation
                JOINT rIndex2
                {
                  OFFSET -2.54057 -0.884171 1.56538
                  CHANNELS 3 Zrotation Xrotation Yrotation
                  End Site
                  {
                    OFFSET -1.62519 -0.234802 1.16502
                  }
                }
              }
              JOINT rMid1
              {
                OFFSET -8.24714 1.18213 3.41376
                CHANNELS 3 Zrotation Xrotation Yrotation
                JOINT rMid2
                {
                  OFFSET -3.10165 -0.590103 1.0647
                  CHANNELS 3 Zrotation Xrotation Yrotation
                  End Site
                  {
                    OFFSET -2.48547 -0.328903 0.83742
                  }
                }
              }
              JOINT rRing1
              {
                OFFSET -8.82822 0.546677 1.51678
                CHANNELS 3 Zrotation Xrotation Yrotation
                JOINT rRing2
                {
                  OFFSET -2.60934 -0.819778 -0.0198488
                  CHANNELS 3 Zrotation Xrotation Yrotation
                  End Site
                  {
                    OFFSET -2.33842 -0.294052 0.168128
                  }
                }
              }
              JOINT rPinky1
              {
                OFFSET -8.27202 -0.0477905 -0.4584
                CHANNELS 3 Zrotation Xrotation Yrotation
                JOINT rPinky2
                {
                  OFFSET -1.82734 -0.647385 -0.700984
                  CHANNELS 3 Zrotation Xrotation Yrotation
                  End Site
                  {
                    OFFSET -1.69225 -0.51767 -0.607171
                  }
                }
              }
            }
          }
        }
      }
      JOINT lCollar
      {
        OFFSET 2.68224 19.2634 -4.8768
        CHANNELS 3 Zrotation Xrotation Yrotation
        JOINT lShldr
        {
          OFFSET 8.77824 -1.95073 1.46304
          CHANNELS 3 Zrotation Xrotation Yrotation
          JOINT lForeArm
          {
            OFFSET 28.1742 -1.7115 0.48768
            CHANNELS 3 Zrotation Xrotation Yrotation
            JOINT lHand
            {
              OFFSET 22.5879 0.773209 7.07136
              CHANNELS 3 Zrotation Xrotation Yrotation
              JOINT lThumb1
              {
                OFFSET 1.2192 -0.487915 3.41376
                CHANNELS 3 Zrotation Xrotation Yrotation
                JOINT lThumb2
                {
                  OFFSET 3.37035 -0.52449 3.41376
                  CHANNELS 3 Zrotation Xrotation Yrotation
                  End Site
                  {
                    OFFSET 1.78271 -1.18214 1.43049
                  }
                }
              }
              JOINT lIndex1
              {
                OFFSET 7.75947 0.938293 5.60832
                CHANNELS 3 Zrotation Xrotation Yrotation
                JOINT lIndex2
                {
                  OFFSET 2.54057 -0.884171 1.56538
                  CHANNELS 3 Zrotation Xrotation Yrotation
                  End Site
                  {
                    OFFSET 1.62519 -0.234802 1.16502
                  }
                }
              }
              JOINT lMid1
              {
                OFFSET 8.24714 1.18213 3.41376
                CHANNELS 3 Zrotation Xrotation Yrotation
                JOINT lMid2
                {
                  OFFSET 3.10165 -0.590103 1.0647
                  CHANNELS 3 Zrotation Xrotation Yrotation
                  End Site
                  {
                    OFFSET 2.48547 -0.328903 0.83742
                  }
                }
              }
              JOINT lRing1
              {
                OFFSET 8.82822 0.546677 1.51678
                CHANNELS 3 Zrotation Xrotation Yrotation
                JOINT lRing2
                {
                  OFFSET 2.60934 -0.819778 -0.0198488
                  CHANNELS 3 Zrotation Xrotation Yrotation
                  End Site
                  {
                    OFFSET 2.33842 -0.294052 0.168128
                  }
                }
              }
              JOINT lPinky1
              {
                OFFSET 8.27202 -0.0477905 -0.4584
                CHANNELS 3 Zrotation Xrotation Yrotation
                JOINT lPinky2
                {
                  OFFSET 1.82734 -0.647385 -0.700984
                  CHANNELS 3 Zrotation Xrotation Yrotation
                  End Site
                  {
                    OFFSET 1.69225 -0.51767 -0.607171
                  }
                }
              }
            }
          }
        }
      }
    }
  }
  JOINT rButtock
  {
    OFFSET -8.77824 4.35084 1.2192
    CHANNELS 3 Zrotation Xrotation Yrotation
    JOINT rThigh
    {
      OFFSET 0 -1.70687 -2.19456
      CHANNELS 3 Zrotation Xrotation Yrotation
      JOINT rShin
      {
        OFFSET 0 -36.8199 0.73152
        CHANNELS 3 Zrotation Xrotation Yrotation
        JOINT rFoot
        {
          OFFSET 0.73152 -45.1104 -5.12064
          CHANNELS 3 Zrotation Xrotation Yrotation
          End Site
          {
            OFFSET -1.1221 -3.69964 12.103
          }
        }
      }
    }
  }
  JOINT lButtock
  {
    OFFSET 8.77824 4.35084 1.2192
    CHANNELS 3 Zrotation Xrotation Yrotation
    JOINT lThigh
    {
      OFFSET 0 -1.70687 -2.19456
      CHANNELS 3 Zrotation Xrotation Yrotation
      JOINT lShin
      {
        OFFSET 0 -36.8199 0.73152
        CHANNELS 3 Zrotation Xrotation Yrotation
        JOINT lFoot
        {
          OFFSET -0.73152 -45.1104 -5.12064
          CHANNELS 3 Zrotation Xrotation Yrotation
          End Site
          {
            OFFSET 1.1221 -3.69964 12.103
          }
        }
      }
    }
  }
}
MOTION
Frames:	4
Frame Time:	0.00833333
22.0726 81.1832 -41.1758 -220.294 -119.542 210.771 4.09599 11.0527 -1.50582 -3.20524 -3.5074 -0.380137 2.95745 11.989 1.47927 30.2403 -43.9548 14.1069 -0.0 0.0 0.0 -0.0 0.0 0.0 -4.22922e-13 -2.06975e-12 -2.95642e-13 53.5404 -11.7853 -6.80299 -23.2411 -17.7426 47.2911 -11.0861 -64.81 -17.3855 -4.45347e-09 1.34029e-08 -7.98997e-09 -7.23111e-09 2.29997e-08 -1.39425e-08 -4.45347e-09 1.34029e-08 -7.98998e-09 7.73091 5.47488 0.417314 -4.45347e-09 1.34029e-08 -7.98997e-09 2.90554 0.965183 0.102902 -4.45347e-09 1.34029e-08 -7.98997e-09 10.2786 0.731801 0.0259123 -4.45348e-09 1.34029e-08 -7.98995e-09 2.22167 -0.733487 -0.20892 -4.23083e-13 -2.06975e-12 -2.95891e-13 -59.2284 -16.0019 -54.5472 28.2034 -32.0069 -70.4648 131.705 -77.5728 140.374 -4.99724e-09 5.40835e-09 7.6433e-09 -9.08755e-09 7.82406e-09 1.25674e-08 -4.99723e-09 5.40837e-09 7.64332e-09 -7.73091 5.47488 -0.417314 -4.99724e-09 5.40836e-09 7.6433e-09 -2.90554 0.965183 -0.102902 -4.99725e-09 5.40835e-09 7.6433e-09 -10.2786 0.731801 -0.0259123 -4.99724e-09 5.40836e-09 7.64328e-09 -2.22167 -0.733487 0.20892 -2.03217e-16 0.0 -3.88251e-19 24.316 2.82571 -13.568 0.0563737 17.2611 0.761124 -9.15456 -18.0815 -25.1689 2.03217e-16 0.0 3.88251e-19 74.9386 -48.2309 55.9796 7.73435 83.0572 -8.22937 3.27247 39.9568 -5.13774
22.1808 81.1026 -41.3526 -219.622 -119.548 210.387 3.44075 11.1989 -1.63681 -2.48431 -3.76678 -0.422155 2.92336 12.0382 1.67987 29.9633 -44.468 14.5994 -0.0 0.0 0.0 -0.0 0.0 0.0 -4.18793e-13 -1.3105e-12 -4.42064e-15 53.8138 -13.0949 -6.06807 -23.8742 -18.8679 49.1863 -13.2052 -67.3705 -19.7016 -4.36461e-09 1.16111e-08 -6.87643e-09 -7.12487e-09 2.00148e-08 -1.20368e-08 -4.36461e-09 1.16111e-08 -6.87644e-09 7.73091 5.47488 0.417314 -4.36461e-09 1.16111e-08 -6.87643e-09 2.90554 0.965183 0.102902 -4.3646e-09 1.16111e-08 -6.87643e-09 10.2786 0.731801 0.0259123 -4.36461e-09 1.16111e-08 -6.87642e-09 2.22167 -0.733487 -0.20892 -4.18906e-13 -1.3105e-12 -4.6726e-15 -59.7278 -14.9985 -53.5644 28.3831 -33.68 -73.1704 137.97 -75.5849 146.813 -4.55583e-09 5.61365e-09 7.47374e-09 -8.32833e-09 8.24465e-09 1.23164e-08 -4.55582e-09 5.61367e-09 7.47376e-09 -7.73091 5.47488 -0.417314 -4.55582e-09 5.61366e-09 7.47375e-09 -2.90554 0.965183 -0.102902 -4.55583e-09 5.61365e-09 7.47374e-09 -10.2786 0.731801 -0.0259123 -4.55582e-09 5.61366e-09 7.47373e-09 -2.22167 -0.733487 0.20892 -2.03217e-16 0.0 -3.88251e-19 24.0824 2.10183 -13.4667 0.0574159 17.9619 0.779109 -9.39908 -18.3068 -25.3736 2.03217e-16 0.0 3.88251e-19 74.8822 -48.9478 56.1837 7.61291 82.9553 -8.1006 3.29374 39.6787 -5.20609
22.3033 81.0094 -41.5257 -218.901 -119.475 209.934 2.64608 11.3867 -1.78703 -1.72655 -4.06857 -0.470278 2.84884 12.1594 1.89586 29.6167 -44.9385 15.0941 -0.0 0.0 0.0 -0.0 0.0 0.0 -2.64133e-13 2.44208e-13 4.2953e-13 54.2046 -14.2578 -5.2506 -24.4718 -20.0141 51.1476 -15.8231 -69.8512 -22.5138 -3.97948e-09 7.59584e-09 -4.47704e-09 -6.57284e-09 1.32676e-08 -7.91359e-09 -3.97948e-09 7.59584e-09 -4.47704e-09 7.73091 5.47488 0.417314 -3.97948e-09 7.59584e-09 -4.47704e-09 2.90554 0.965183 0.102902 -3.97947e-09 7.59584e-09 -4.47704e-09 10.2786 0.731801 0.0259123 -3.97948e-09 7.59585e-09 -4.47703e-09 2.22167 -0.733487 -0.20892 -2.64192e-13 2.44206e-13 4.29279e-13 -60.1969 -14.0066 -52.463 28.4586 -35.4038 -75.9367 142.161 -73.7437 151.157 -3.36267e-09 4.61986e-09 6.10259e-09 -6.20459e-09 6.84792e-09 1.0087e-08 -3.36267e-09 4.61987e-09 6.10261e-09 -7.73091 5.47488 -0.417314 -3.36267e-09 4.61986e-09 6.10259e-09 -2.90554 0.965183 -0.102902 -3.36268e-09 4.61986e-09 6.10259e-09 -10.2786 0.731801 -0.0259123 -3.36267e-09 4.61986e-09 6.10258e-09 -2.22167 -0.733487 0.20892 -2.03217e-16 0.0 -3.88251e-19 23.7047 1.2298 -13.2964 0.0577556 18.9661 0.799605 -9.74185 -18.6142 -25.6471 2.03217e-16 0.0 3.88251e-19 74.4042 -49.6226 56.0152 7.34985 82.7274 -7.82662 3.30466 39.1111 -5.29073
22.4104 80.9105 -41.6612 -218.062 -119.361 209.336 1.86701 11.5701 -1.95589 -1.0183 -4.35301 -0.523013 2.8166 12.3066 2.12712 29.1777 -45.3467 15.5625 -0.0 0.0 0.0 -0.0 0.0 0.0 -7.59767e-14 1.71259e-12 7.95096e-13 54.7439 -15.2214 -4.39499 -25.0427 -21.1976 53.1449 -19.0557 -72.1909 -25.9327 -3.36602e-09 3.30204e-09 -1.94801e-09 -5.63806e-09 6.01131e-09 -3.55146e-09 -3.36601e-09 3.30203e-09 -1.94801e-09 7.73091 5.47488 0.417314 -3.36602e-09 3.30204e-09 -1.948e-09 2.90554 0.965183 0.102902 -3.36601e-09 3.30204e-09 -1.94801e-09 10.2786 0.731801 0.0259123 -3.36602e-09 3.30205e-09 -1.948e-09 2.22167 -0.733487 -0.20892 -7.59876e-14 1.71259e-12 7.94846e-13 -60.5987 -13.024 -51.2922 28.4148 -37.0883 -78.7502 145.206 -72.0149 154.343 -1.9601e-09 3.11731e-09 4.20614e-09 -3.68225e-09 4.66634e-09 6.98335e-09 -1.96011e-09 3.11732e-09 4.20616e-09 -7.73091 5.47488 -0.417314 -1.9601e-09 3.11731e-09 4.20614e-09 -2.90554 0.965183 -0.102902 -1.96011e-09 3.11731e-09 4.20613e-09 -10.2786 0.731801 -0.0259123 -1.96009e-09 3.11731e-09 4.20612e-09 -2.22167 -0.733487 0.20892 -2.03217e-16 0.0 -3.88251e-19 23.2894 0.3256 -13.1269 0.0557109 20.0827 0.820221 -10.097 -18.9459 -25.897 2.03217e-16 0.0 3.88251e-19 73.6895 -50.2233 55.5856 7.01302 82.4146 -7.47737 3.30772 38.458 -5.37472
